<svg width="1000" height="1050" xmlns="http://www.w3.org/2000/svg">
 <!-- Created with SVG Editor - http://github.com/mzalive/SVG Editor/ -->

 <g>
  <title>background</title>
  <rect fill="none" id="canvas_background" height="1052" width="1002" y="-1" x="-1"/>
  <g display="none" overflow="visible" y="0" x="0" height="100%" width="100%" id="canvasGrid">
   <rect fill="url(#gridpattern)" stroke-width="0" y="0" x="0" height="100%" width="100%"/>
  </g>
 </g>
 <g>
  <title>Layer 1</title>
  <g id="svg_6">
   <path id="svg_7" fill="#ffffff" d="m730.326944,401.542923c0,-204.53113 -162.52949,-370.36981 -362.99039,-370.36981c-200.4598,0 -362.99642,165.83868 -362.99642,370.36981c0,204.53278 162.53662,370.35993 362.99642,370.35993c200.4609,0 362.99039,-165.82715 362.99039,-370.35993zm-362.99313,277.76734c-150.1262,0 -272.24471,-124.59039 -272.24471,-277.76569c0,-153.17586 122.11851,-277.77503 272.24471,-277.77503c150.12235,0 272.24964,124.59917 272.24964,277.77503c0,153.1753 -122.12729,277.76569 -272.24964,277.76569z" clip-rule="evenodd" fill-rule="evenodd"/>
   <path id="svg_8" fill="#ffffff" d="m945.734344,860.775283l-222.06858,-226.60082c-33.09191,52.51029 -76.87792,97.16324 -128.34019,130.93004l222.09053,226.59533c35.4513,36.17009 92.93826,36.17009 128.31824,0c35.45678,-36.10425 35.45678,-94.75994 0,-130.92455z" clip-rule="evenodd" fill-rule="evenodd"/>
  </g>
 </g>
</svg>