<svg width="580" height="400" xmlns="http://www.w3.org/2000/svg">
 <!-- Created with SVG Editor - http://github.com/mzalive/SVG Editor/ -->

 <g>
  <title>background</title>
  <rect fill="#fff" id="canvas_background" height="402" width="582" y="-1" x="-1"/>
  <g display="none" overflow="visible" y="0" x="0" height="100%" width="100%" id="canvasGrid">
   <rect fill="url(#gridpattern)" stroke-width="0" y="0" x="0" height="100%" width="100%"/>
  </g>
 </g>
 <g>
  <title>Layer 1</title>
  <g id="svg_21">
   <path id="svg_18" fill="#c62306" d="m374.597061,112.3292l36.579441,0l-54.22585,-90.184978c-4.369874,-7.307797 -14.050826,-9.799113 -21.589729,-5.480842c-7.538902,4.235208 -10.107508,13.619101 -5.654177,20.926922l44.890315,74.738898z"/>
   <path id="svg_19" fill="#c62306" d="m250.463423,37.590186c4.368947,-7.307821 1.884726,-16.691714 -5.653945,-20.926945c-7.538671,-4.235208 -17.218927,-1.826932 -21.588106,5.480865l-54.22701,90.268086l36.579672,0l44.889388,-74.822007z"/>
   <path id="svg_20" fill="#c62306" d="m471.742727,139.982506l-363.570291,0c-14.820295,0 -26.813641,11.626184 -26.813641,25.992522l0,28.816133c0,14.36657 11.993346,25.992522 26.813641,25.992522l8.395259,0l25.87151,135.942962c3.255267,16.025963 18.332608,28.732213 34.009676,28.732213l77.785384,0c6.853168,0 15.762612,0 24.843141,0l16.448114,0c9.080761,0 17.990668,0 24.843373,0l77.78608,0c15.67591,0 30.753714,-12.70625 34.008517,-28.732213l26.043059,-136.025955l13.621953,0c14.820481,0 26.812714,-11.626184 26.812714,-25.992522l0,-28.816133c-0.085775,-14.283345 -12.078008,-25.909529 -26.898488,-25.909529zm-242.351834,194.486759c0,8.387377 -7.024718,14.699932 -15.163116,14.699932c-8.652351,0 -15.162884,-6.810976 -15.162884,-14.699932l0,-82.211591c0,-8.38784 7.024486,-14.699237 15.162884,-14.699237c8.652351,0 15.163116,6.809585 15.163116,14.699237l0,82.211591zm48.658608,0c0,8.387377 -7.024718,14.699932 -15.163116,14.699932c-8.652119,0 -15.162884,-6.810976 -15.162884,-14.699932l0,-82.211591c0,-8.38784 7.024718,-14.699237 15.162884,-14.699237c8.138398,0 15.163116,6.809585 15.163116,14.699237l0,82.211591zm48.914773,0c0,7.888956 -6.509606,14.699932 -15.162189,14.699932c-8.138166,0 -15.162884,-6.312556 -15.162884,-14.699932l0,-82.211591c0,-7.889651 7.024718,-14.699237 15.162884,-14.699237c8.137934,0 15.162189,6.311397 15.162189,14.699237l0,82.211591zm48.659767,0c0,7.888956 -6.511924,14.699932 -15.163579,14.699932c-8.137007,0 -15.163579,-6.312556 -15.163579,-14.699932l0,-82.211591c0,-7.889651 6.511924,-14.699237 15.163579,-14.699237c8.139325,0 15.163579,6.311397 15.163579,14.699237l0,82.211591z"/>
  </g>
 </g>
</svg>