<svg width="818" height="821" xmlns="http://www.w3.org/2000/svg">
 <!-- Created with SVG Editor - http://github.com/mzalive/SVG Editor/ -->

 <g>
  <title>background</title>
  <rect fill="none" id="canvas_background" height="823" width="820" y="-1" x="-1"/>
  <g display="none" overflow="visible" y="0" x="0" height="100%" width="100%" id="canvasGrid">
   <rect fill="url(#gridpattern)" stroke-width="0" y="1" x="1" height="819" width="816"/>
  </g>
 </g>
 <g>
  <title>Layer 1</title>
  <g id="svg_6">
   <path id="svg_4" fill="#ffffff" d="m408.992668,432.099164c100.058768,0 181.182733,-95.842055 181.182733,-214.070152c0,-163.949675 -81.120292,-214.069417 -181.182733,-214.069417c-100.066114,0 -181.181264,50.119742 -181.181264,214.069417c0.001837,118.228097 81.116987,214.070152 181.181264,214.070152z"/>
   <path id="svg_5" fill="#ffffff" d="m809.088161,747.184558l-91.40863,-207.860418c-4.179982,-9.509642 -11.526171,-17.399449 -20.668503,-22.203856l-141.858583,-74.545453c-3.129477,-1.641873 -6.916437,-1.322314 -9.730027,0.826446c-40.121211,30.633608 -87.298437,46.824609 -136.422403,46.824609c-49.129108,0 -96.300825,-16.191001 -136.423873,-46.824609c-2.820202,-2.14876 -6.608264,-2.46832 -9.736639,-0.826446l-141.850502,74.545453c-9.146005,4.804408 -16.483012,12.686868 -20.667768,22.203856l-91.40863,207.860418c-6.301928,14.332415 -5.010468,30.725436 3.456382,43.871441c8.462442,13.142332 22.78494,20.984389 38.313682,20.984389l716.631391,0c15.529844,0 29.854912,-7.84573 38.317722,-20.988062c8.46281,-13.142332 9.759412,-29.542699 3.456382,-43.867768z"/>
  </g>
 </g>
</svg>