<svg width="18" height="16" viewBox="0 0 18 16" fill="#c62306" xmlns="http://www.w3.org/2000/svg">
<path d="M12.6492 4.21821H14.2271L11.888 0.327968C11.6995 0.0127366 11.2819 -0.0947287 10.9567 0.0915446C10.6315 0.274236 10.5207 0.679022 10.7128 0.994254L12.6492 4.21821Z" fill="#242424"/>
<path d="M7.29454 0.994249C7.483 0.679017 7.37584 0.274231 7.05065 0.0915394C6.72546 -0.0911517 6.30789 0.0127315 6.11942 0.327963L3.78027 4.22179H5.35818L7.29454 0.994249Z" fill="#242424"/>
<path d="M16.8397 5.41107H1.15664C0.517348 5.41107 0 5.91258 0 6.53229V7.77531C0 8.39503 0.517348 8.89653 1.15664 8.89653H1.51878L2.63478 14.7606C2.7752 15.4519 3.42558 16 4.10183 16H7.4572C7.75282 16 8.13714 16 8.52884 16H9.23835C9.63006 16 10.0144 16 10.31 16H13.6654C14.3416 16 14.992 15.4519 15.1324 14.7606L16.2558 8.89295H16.8434C17.4827 8.89295 18 8.39144 18 7.77173V6.52871C17.9963 5.91258 17.479 5.41107 16.8397 5.41107ZM6.38555 13.8005C6.38555 14.1623 6.08253 14.4346 5.73147 14.4346C5.35824 14.4346 5.0774 14.1408 5.0774 13.8005V10.2542C5.0774 9.89238 5.38041 9.62013 5.73147 9.62013C6.1047 9.62013 6.38555 9.91387 6.38555 10.2542V13.8005ZM8.4845 13.8005C8.4845 14.1623 8.18148 14.4346 7.83042 14.4346C7.4572 14.4346 7.17635 14.1408 7.17635 13.8005V10.2542C7.17635 9.89238 7.47937 9.62013 7.83042 9.62013C8.18148 9.62013 8.4845 9.91387 8.4845 10.2542V13.8005ZM10.5945 13.8005C10.5945 14.1408 10.3137 14.4346 9.94046 14.4346C9.58941 14.4346 9.28639 14.1623 9.28639 13.8005V10.2542C9.28639 9.91387 9.58941 9.62013 9.94046 9.62013C10.2915 9.62013 10.5945 9.89238 10.5945 10.2542V13.8005ZM12.6935 13.8005C12.6935 14.1408 12.4126 14.4346 12.0394 14.4346C11.6884 14.4346 11.3853 14.1623 11.3853 13.8005V10.2542C11.3853 9.91387 11.6662 9.62013 12.0394 9.62013C12.3905 9.62013 12.6935 9.89238 12.6935 10.2542V13.8005Z" fill="#242424"/>
</svg>
