<svg width="580" height="400" xmlns="http://www.w3.org/2000/svg" style="vector-effect: non-scaling-stroke;" stroke="null">
 <!-- Created with SVG Editor - http://github.com/mzalive/SVG Editor/ -->

 <g stroke="null">
  <title stroke="null">background</title>
  <rect stroke="null" fill="#fff" id="canvas_background" height="402" width="582" y="-1" x="-1"/>
  <g style="vector-effect: non-scaling-stroke;" stroke="null" display="none" overflow="visible" y="0" x="0" height="100%" width="100%" id="canvasGrid">
   <rect stroke="null" fill="url(#gridpattern)" stroke-width="0" y="0" x="0" height="100%" width="100%"/>
  </g>
 </g>
 <g stroke="null">
  <title stroke="null">Layer 1</title>
  <!-- Created with SVG Editor - http://github.com/mzalive/SVG Editor/ -->
  <!-- Created with SVG Editor - http://github.com/mzalive/SVG Editor/ -->
  <g stroke="null" id="svg_59">
   <g stroke="null" transform="matrix(1.3781542642853069,0,0,1.0616419377688,-15153.88616016809,-7823.910462827064) " id="svg_58">
    <title stroke="null" transform="translate(1.8189894035458565e-12,0) translate(0,-1.8189894035458565e-12) translate(-1.8189894035458565e-12,0) translate(-16.435930252075195,-12.781109809875488) translate(0,-9.094947017729282e-13) translate(-1.8189894035458565e-12,-9.094947017729282e-13) translate(24.65389633178711,-154.04774475097656) translate(-1.8189894035458565e-12,0.8575473427772522) translate(10909.033203125,0) translate(0,7523.4716796875) ">Layer 1</title>
    <g stroke="null" id="svg_49">
     <path stroke="null" d="m11291.84823,7469.829572l36.579441,0l-54.22585,-90.184978c-4.369874,-7.307797 -14.050826,-9.799113 -21.589729,-5.480842c-7.538902,4.235208 -10.107508,13.619101 -5.654177,20.926922l44.890315,74.738898z" fill="#c62306" id="svg_52"/>
     <path stroke="null" d="m11167.714592,7395.090558c4.368947,-7.307821 1.884726,-16.691714 -5.653945,-20.926945c-7.538671,-4.235208 -17.218927,-1.826932 -21.588106,5.480865l-54.22701,90.268086l36.579672,0l44.889388,-74.822007l0.000001,0.000001z" fill="#c62306" id="svg_51"/>
     <path stroke="null" d="m11388.993896,7497.482878l-363.570291,0c-14.820295,0 -26.813641,11.626184 -26.813641,25.992522l0,28.816133c0,14.36657 11.993346,25.992522 26.813641,25.992522l8.395259,0l25.87151,135.942962c3.255267,16.025963 18.332608,28.732213 34.009676,28.732213l77.785384,0c6.853168,0 15.762612,0 24.843141,0l16.448114,0c9.080761,0 17.990668,0 24.843373,0l77.78608,0c15.67591,0 30.753714,-12.70625 34.008517,-28.732213l26.043059,-136.025955l13.621953,0c14.820481,0 26.812714,-11.626184 26.812714,-25.992522l0,-28.816133c-0.085775,-14.283345 -12.078008,-25.909529 -26.898488,-25.909529l-0.000001,0zm-242.351834,194.486759c0,8.387377 -7.024718,14.699932 -15.163116,14.699932c-8.652351,0 -15.162884,-6.810976 -15.162884,-14.699932l0,-82.211591c0,-8.38784 7.024486,-14.699237 15.162884,-14.699237c8.652351,0 15.163116,6.809585 15.163116,14.699237l0,82.211591zm48.658608,0c0,8.387377 -7.024718,14.699932 -15.163116,14.699932c-8.652119,0 -15.162884,-6.810976 -15.162884,-14.699932l0,-82.211591c0,-8.38784 7.024718,-14.699237 15.162884,-14.699237c8.138398,0 15.163116,6.809585 15.163116,14.699237l0,82.211591zm48.914773,0c0,7.888956 -6.509606,14.699932 -15.162189,14.699932c-8.138166,0 -15.162884,-6.312556 -15.162884,-14.699932l0,-82.211591c0,-7.889651 7.024718,-14.699237 15.162884,-14.699237c8.137934,0 15.162189,6.311397 15.162189,14.699237l0,82.211591zm48.659767,0c0,7.888956 -6.511924,14.699932 -15.163579,14.699932c-8.137007,0 -15.163579,-6.312556 -15.163579,-14.699932l0,-82.211591c0,-7.889651 6.511924,-14.699237 15.163579,-14.699237c8.139325,0 15.163579,6.311397 15.163579,14.699237l0,82.211591z" fill="#c62306" id="svg_50"/>
    </g>
   </g>
  </g>
 </g>
</svg>